<svg width="13" height="11" viewBox="0 0 13 11" fill="none" xmlns="http://www.w3.org/2000/svg">
<path d="M1.53268 11H0.332397L3.80399 1.54546H4.98581L7.40725 8.32244H6.20696L4.43183 3.04119H4.35797L1.53268 11ZM1.97586 7.30682H6.81393V8.32244H1.97586V7.30682Z" fill="url(#paint0_linear_0_1)"/>
<path d="M10.898 2.65575C10.7701 2.20237 10.4914 1.87883 10.0619 1.68511C9.63235 1.4914 9.13489 1.43932 8.56949 1.52887C8.15608 1.59434 7.80494 1.71851 7.51607 1.90137C7.23024 2.08374 7.01923 2.30568 6.88303 2.56719C6.74988 2.82821 6.70689 3.10767 6.75407 3.40557C6.79355 3.65483 6.88677 3.85974 7.03373 4.02031C7.18324 4.17736 7.36162 4.30024 7.56886 4.38894C7.77562 4.4746 7.98837 4.53906 8.20711 4.58231C8.42537 4.62253 8.62474 4.65171 8.80523 4.66986L9.79408 4.77499C10.0474 4.80031 10.3319 4.84561 10.6476 4.9109C10.9663 4.97571 11.2779 5.08372 11.5823 5.23494C11.8892 5.38263 12.1562 5.59274 12.3832 5.86527C12.6102 6.1378 12.7584 6.49293 12.8277 6.93066C12.9077 7.43526 12.8476 7.91216 12.6477 8.36138C12.4508 8.81011 12.1191 9.19451 11.6525 9.51457C11.189 9.83415 10.5985 10.0508 9.88113 10.1644C9.21238 10.2703 8.61622 10.2541 8.09263 10.1158C7.57209 9.977 7.14142 9.73672 6.80061 9.39497C6.46285 9.05273 6.23529 8.62916 6.11793 8.12426L7.2852 7.93938C7.37144 8.28718 7.53621 8.56022 7.77951 8.7585C8.02536 8.95326 8.31678 9.0816 8.65377 9.14352C8.99331 9.20192 9.34851 9.20175 9.71936 9.14301C10.151 9.07465 10.5275 8.94335 10.8489 8.74912C11.1697 8.55184 11.4105 8.31117 11.5711 8.02709C11.7313 7.73998 11.7845 7.42619 11.7305 7.08574C11.6814 6.77568 11.5548 6.53711 11.3508 6.37C11.1467 6.2029 10.8937 6.08094 10.5917 6.00413C10.2897 5.92731 9.9674 5.86931 9.62466 5.83011L8.42364 5.6838C7.66087 5.58961 7.0359 5.38167 6.5487 5.05998C6.06151 4.7383 5.76809 4.26284 5.66842 3.63361C5.58562 3.11077 5.65475 2.63242 5.87582 2.19855C6.09945 1.76117 6.43431 1.39653 6.88041 1.10463C7.32907 0.809221 7.8513 0.614332 8.44709 0.519968C9.04896 0.424641 9.60105 0.447817 10.1034 0.589496C10.6052 0.728136 11.0223 0.961216 11.3546 1.28874C11.6899 1.61578 11.9025 2.01367 11.9923 2.48243L10.898 2.65575Z" fill="url(#paint1_linear_0_1)"/>
<defs>
<linearGradient id="paint0_linear_0_1" x1="2" y1="1.5" x2="7" y2="9" gradientUnits="userSpaceOnUse">
<stop stop-color="white"/>
<stop offset="1" stop-color="#999999"/>
</linearGradient>
<linearGradient id="paint1_linear_0_1" x1="13.3994" y1="0.115595" x2="10.9909" y2="10.5473" gradientUnits="userSpaceOnUse">
<stop stop-color="white"/>
<stop offset="1" stop-color="#999999"/>
</linearGradient>
</defs>
</svg>
